<svg xmlns="http://www.w3.org/2000/svg" width="31" height="31" viewBox="0 0 31 31">
  <g id="IG" transform="translate(-488 -555)">
    <circle id="Ellipse_7" data-name="Ellipse 7" cx="15.5" cy="15.5" r="15.5" transform="translate(488 555)" fill="#ffad8d"/>
    <path id="Icon_simple-instagram" data-name="Icon simple-instagram" d="M10.044,0C7.315,0,6.974.013,5.9.06A7.406,7.406,0,0,0,3.465.527,4.918,4.918,0,0,0,1.686,1.686,4.9,4.9,0,0,0,.527,3.465,7.384,7.384,0,0,0,.06,5.9C.01,6.974,0,7.315,0,10.044s.013,3.069.06,4.14a7.41,7.41,0,0,0,.467,2.438A4.925,4.925,0,0,0,1.686,18.4,4.911,4.911,0,0,0,3.465,19.56a7.415,7.415,0,0,0,2.438.467c1.071.05,1.412.06,4.14.06s3.069-.013,4.14-.06a7.432,7.432,0,0,0,2.438-.467,5.133,5.133,0,0,0,2.938-2.938,7.41,7.41,0,0,0,.467-2.438c.05-1.071.06-1.412.06-4.14s-.013-3.069-.06-4.14a7.428,7.428,0,0,0-.467-2.438A4.929,4.929,0,0,0,18.4,1.686,4.894,4.894,0,0,0,16.622.527,7.389,7.389,0,0,0,14.184.06C13.113.01,12.772,0,10.044,0Zm0,1.808c2.681,0,3,.013,4.059.059a5.534,5.534,0,0,1,1.864.347A3.305,3.305,0,0,1,17.873,4.12a5.545,5.545,0,0,1,.346,1.864c.048,1.06.059,1.378.059,4.059s-.013,3-.062,4.059a5.652,5.652,0,0,1-.352,1.864,3.189,3.189,0,0,1-.752,1.157,3.133,3.133,0,0,1-1.155.75,5.586,5.586,0,0,1-1.871.346c-1.066.048-1.38.059-4.067.059s-3-.013-4.067-.062a5.7,5.7,0,0,1-1.871-.352,3.11,3.11,0,0,1-1.154-.752,3.05,3.05,0,0,1-.753-1.155,5.7,5.7,0,0,1-.352-1.871c-.038-1.055-.051-1.38-.051-4.054s.013-3,.051-4.068a5.693,5.693,0,0,1,.352-1.87,2.977,2.977,0,0,1,.753-1.156A2.971,2.971,0,0,1,4.08,2.185a5.559,5.559,0,0,1,1.859-.352c1.067-.038,1.381-.05,4.067-.05l.038.025Zm0,3.078A5.157,5.157,0,1,0,15.2,10.044,5.157,5.157,0,0,0,10.044,4.886Zm0,8.505a3.348,3.348,0,1,1,3.348-3.348A3.347,3.347,0,0,1,10.044,13.391ZM16.61,4.683a1.205,1.205,0,1,1-1.205-1.2A1.206,1.206,0,0,1,16.61,4.683Z" transform="translate(493 560)" fill="#3d3c3c"/>
  </g>
</svg>
