<svg xmlns="http://www.w3.org/2000/svg" width="106.656" height="28.684" viewBox="0 0 106.656 28.684">
  <g id="Logo" transform="translate(-373 -26.459)">
    <g id="logo-2" data-name="logo" transform="translate(426.328 40.801)">
      <g id="Group_3" data-name="Group 3" transform="translate(-53.328 -14.342)">
        <path id="Path_1" data-name="Path 1" d="M1395.994,18.944a2.1,2.1,0,0,1,.59-1.483,1.959,1.959,0,0,1,1.5-.631,2.1,2.1,0,0,1,1.524.6,2.16,2.16,0,0,1,0,3.024,2.1,2.1,0,0,1-1.524.6,1.957,1.957,0,0,1-1.5-.631A2.1,2.1,0,0,1,1395.994,18.944Zm2.1,4.489h0a1.647,1.647,0,0,1,1.661,1.647V34.95a1.647,1.647,0,0,1-1.647,1.647h0a1.647,1.647,0,0,1-1.647-1.647V25.08A1.647,1.647,0,0,1,1398.094,23.433Z" transform="translate(-1312.206 -15.82)" fill="#353535"/>
        <path id="Path_2" data-name="Path 2" d="M1538.238,120.719a6.965,6.965,0,0,1,.563-2.841,6.639,6.639,0,0,1,1.524-2.183,6.711,6.711,0,0,1,2.279-1.4,8.18,8.18,0,0,1,5.6,0,6.546,6.546,0,0,1,3.8,3.583,6.975,6.975,0,0,1,.563,2.841,7.07,7.07,0,0,1-.563,2.855,6.758,6.758,0,0,1-1.524,2.21,6.953,6.953,0,0,1-2.279,1.442,7.777,7.777,0,0,1-5.6,0,6.95,6.95,0,0,1-2.279-1.442,6.744,6.744,0,0,1-1.524-2.21A7.06,7.06,0,0,1,1538.238,120.719Zm3.349,0a5.26,5.26,0,0,0,.233,1.538,4.22,4.22,0,0,0,.7,1.372,3.651,3.651,0,0,0,1.181.988,3.96,3.96,0,0,0,3.4,0,3.664,3.664,0,0,0,1.181-.988,4.241,4.241,0,0,0,.7-1.372,5.281,5.281,0,0,0,.233-1.538,5.151,5.151,0,0,0-.233-1.524,4.282,4.282,0,0,0-.7-1.359,3.533,3.533,0,0,0-1.181-.975,4.1,4.1,0,0,0-3.4,0,3.521,3.521,0,0,0-1.181.975,4.26,4.26,0,0,0-.7,1.359A5.131,5.131,0,0,0,1541.587,120.719Z" transform="translate(-1445.913 -106.971)" fill="#353535"/>
        <path id="Path_3" data-name="Path 3" d="M473.7,127.123a6.964,6.964,0,0,1,.563-2.841,6.638,6.638,0,0,1,1.524-2.183,6.709,6.709,0,0,1,2.279-1.4,8.18,8.18,0,0,1,5.6,0,6.546,6.546,0,0,1,3.8,3.582,6.974,6.974,0,0,1,.563,2.841,7.069,7.069,0,0,1-.563,2.855,6.756,6.756,0,0,1-1.524,2.21,6.954,6.954,0,0,1-2.279,1.442,7.777,7.777,0,0,1-5.6,0,6.949,6.949,0,0,1-2.279-1.442,6.741,6.741,0,0,1-1.524-2.21A7.059,7.059,0,0,1,473.7,127.123Zm3.349,0a5.261,5.261,0,0,0,.233,1.538,4.219,4.219,0,0,0,.7,1.372,3.652,3.652,0,0,0,1.181.989,3.959,3.959,0,0,0,3.4,0,3.66,3.66,0,0,0,1.18-.989,4.232,4.232,0,0,0,.7-1.372,5.275,5.275,0,0,0,.233-1.538,5.145,5.145,0,0,0-.233-1.524,4.272,4.272,0,0,0-.7-1.359,3.528,3.528,0,0,0-1.18-.975,4.1,4.1,0,0,0-3.4,0,3.52,3.52,0,0,0-1.181.975,4.259,4.259,0,0,0-.7,1.359A5.133,5.133,0,0,0,477.053,127.123Z" transform="translate(-445.272 -112.99)" fill="#ffad8d"/>
        <g id="Group_1" data-name="Group 1" transform="translate(67.742)">
          <path id="Path_4" data-name="Path 4" d="M1139.555,17.965l-7.612-6.55V1.648a1.647,1.647,0,1,0-3.294,0V19.13a1.647,1.647,0,0,0,3.294,0v-3.38l5.283,4.545a1.647,1.647,0,0,0,2.33-2.33Z" transform="translate(-1128.648 0)" fill="#353535"/>
          <path id="Path_5" data-name="Path 5" d="M1242.527,130.307a2.1,2.1,0,0,0,1.523-.6,2.159,2.159,0,0,0,0-3.025,2.1,2.1,0,0,0-1.523-.6,1.957,1.957,0,0,0-1.5.632,2.155,2.155,0,0,0,0,2.965A1.956,1.956,0,0,0,1242.527,130.307Z" transform="translate(-1233.73 -118.512)" fill="#353535"/>
        </g>
        <g id="Group_2" data-name="Group 2" transform="translate(46.515 3.566)">
          <path id="Path_6" data-name="Path 6" d="M787.23,122.1a6.734,6.734,0,0,0-2.279-1.4,8.188,8.188,0,0,0-5.6,0,6.716,6.716,0,0,0-2.279,1.4,6.643,6.643,0,0,0-1.523,2.183,6.959,6.959,0,0,0-.563,2.841,7.06,7.06,0,0,0,.563,2.855,6.748,6.748,0,0,0,1.523,2.21,6.936,6.936,0,0,0,2.279,1.442,7.774,7.774,0,0,0,5.6,0,6.955,6.955,0,0,0,2.279-1.442,6.761,6.761,0,0,0,1.523-2.21,7.075,7.075,0,0,0,.563-2.855,6.974,6.974,0,0,0-.563-2.841A6.656,6.656,0,0,0,787.23,122.1Zm-1.5,6.562a4.2,4.2,0,0,1-.7,1.373,3.676,3.676,0,0,1-1.18.989,3.956,3.956,0,0,1-3.4,0,3.657,3.657,0,0,1-1.18-.989,4.22,4.22,0,0,1-.7-1.373,5.252,5.252,0,0,1-.233-1.537,5.127,5.127,0,0,1,.233-1.524,4.274,4.274,0,0,1,.7-1.359,3.526,3.526,0,0,1,1.18-.975,4.1,4.1,0,0,1,3.4,0,3.544,3.544,0,0,1,1.18.975,4.257,4.257,0,0,1,.7,1.359,5.129,5.129,0,0,1,.233,1.524A5.254,5.254,0,0,1,785.734,128.661Z" transform="translate(-774.986 -116.557)" fill="#ffad8d"/>
          <path id="Path_7" data-name="Path 7" d="M794.441,358.29h-.072a1.684,1.684,0,0,0-1.566,1.229,3.872,3.872,0,0,1-7.346,0,1.684,1.684,0,0,0-1.566-1.229h-.071a1.623,1.623,0,0,0-1.561,2.076,7.177,7.177,0,0,0,13.741,0A1.623,1.623,0,0,0,794.441,358.29Z" transform="translate(-781.76 -340.352)" fill="#ffad8d"/>
          <path id="Path_8" data-name="Path 8" d="M974.218,60.017a2.1,2.1,0,0,0-1.523-.6,1.957,1.957,0,0,0-1.5.632,2.155,2.155,0,0,0,0,2.965,1.956,1.956,0,0,0,1.5.631,2.1,2.1,0,0,0,1.523-.6,2.159,2.159,0,0,0,0-3.024Z" transform="translate(-958.867 -59.415)" fill="#ffad8d"/>
        </g>
        <path id="Path_9" data-name="Path 9" d="M12.563,50.967c-1.195-1.34-4.924-1.284-4.924-1.284H6.5a1.571,1.571,0,0,0-1.571,1.582h0A1.571,1.571,0,0,0,6.5,52.825h1.68c.811,0,2.61,0,2.61,2.2a2.2,2.2,0,0,1-2.23,2.508H3.895a.347.347,0,0,1-.347-.347V52.825h0V49.683h0V45.621a.347.347,0,0,1,.347-.347H6.633a1.55,1.55,0,0,1,.722.178,2.111,2.111,0,0,1,.6.458,2.191,2.191,0,0,1,.406.663,2.124,2.124,0,0,1,.152.79,2.629,2.629,0,0,1-.139.829c-.014.043-.036.08-.052.121a9.847,9.847,0,0,1,3.721.771,6.292,6.292,0,0,0,.154-1.794c0-1.05-.272-5.159-5.558-5.159H1.8a1.8,1.8,0,0,0-1.8,1.8V58.877a1.8,1.8,0,0,0,1.8,1.8H8.565a8.74,8.74,0,0,0,2.242-.278,4.78,4.78,0,0,0,1.837-.922,4.43,4.43,0,0,0,1.241-1.694,6.419,6.419,0,0,0,.456-2.565A5.845,5.845,0,0,0,12.563,50.967Z" transform="translate(0 -39.602)" fill="#ffad8d"/>
        <path id="Path_10" data-name="Path 10" d="M311.781,18.5h-.454c-.013,0-.418-.007-.572-.007-.722,0-1.187-.158-1.394-.536a2.963,2.963,0,0,1-.31-1.434V1.9a1.6,1.6,0,0,0-3.193,0V16.545a8.474,8.474,0,0,0,.176,1.772,3.691,3.691,0,0,0,.649,1.461,3.192,3.192,0,0,0,1.286,1,5.188,5.188,0,0,0,2.111.365c.347,0,1.083.012,1.119,0h.582a1.322,1.322,0,0,0,0-2.644Z" transform="translate(-287.5 -0.285)" fill="#ffad8d"/>
      </g>
    </g>
  </g>
</svg>
