<svg xmlns="http://www.w3.org/2000/svg" width="28.048" height="16.674" viewBox="0 0 28.048 16.674">
  <g id="menu-icon" transform="translate(-2 -5)">
    <path id="Path_99" data-name="Path 99" d="M29.171,6.516H2.876A.824.824,0,0,1,2,5.758.824.824,0,0,1,2.876,5H29.171a.824.824,0,0,1,.876.758A.824.824,0,0,1,29.171,6.516Z"/>
    <path id="Path_100" data-name="Path 100" d="M29.171,11.516H2.876A.824.824,0,0,1,2,10.758.824.824,0,0,1,2.876,10H29.171a.824.824,0,0,1,.876.758A.824.824,0,0,1,29.171,11.516Z" transform="translate(0 2.579)"/>
    <path id="Path_101" data-name="Path 101" d="M29.171,16.516H2.876a.766.766,0,1,1,0-1.516H29.171a.766.766,0,1,1,0,1.516Z" transform="translate(0 5.159)"/>
  </g>
</svg>
