<svg xmlns="http://www.w3.org/2000/svg" width="40.354" height="26" viewBox="0 0 40.354 26">
  <g id="payment" transform="translate(0 -2)">
    <path id="Path_26" data-name="Path 26" d="M37.327,28H3.027A2.784,2.784,0,0,1,0,25.563V4.438A2.784,2.784,0,0,1,3.027,2h34.3a2.784,2.784,0,0,1,3.027,2.438V25.563A2.784,2.784,0,0,1,37.327,28ZM3.027,3.625a.927.927,0,0,0-1.009.813V25.563a.927.927,0,0,0,1.009.813h34.3a.927.927,0,0,0,1.009-.812V4.438a.927.927,0,0,0-1.009-.812Z" fill="#fe9d78"/>
    <path id="Path_27" data-name="Path 27" d="M37.957,6H5.689C4.2,6,3,5.776,3,5.5S4.2,5,5.689,5H37.957c1.484,0,2.689.224,2.689.5S39.441,6,37.957,6Z" transform="translate(-1.432 5)" fill="#fe9d78"/>
    <path id="Path_28" data-name="Path 28" d="M9.5,9h-6a.5.5,0,0,1,0-1h6a.5.5,0,0,1,0,1Z" transform="translate(4.362 7.333)" fill="#fe9d78"/>
    <path id="Path_29" data-name="Path 29" d="M9.5,10h-6c-.276,0-.5,1.157-.5,2.583s.224,2.583.5,2.583h6c.276,0,.5-1.157.5-2.583S9.776,10,9.5,10Z" transform="translate(24.697 6.583)" fill="#fe9d78"/>
    <path id="Path_30" data-name="Path 30" d="M9.5,13h-6a.5.5,0,0,1,0-1h6a.5.5,0,0,1,0,1Z" transform="translate(4.697 6.667)" fill="#fe9d78"/>
    <path id="Path_31" data-name="Path 31" d="M8.5,15h-5a.5.5,0,0,1,0-1h5a.5.5,0,0,1,0,1Z" transform="translate(4.362 8)" fill="#fe9d78"/>
  </g>
</svg>
