<svg xmlns="http://www.w3.org/2000/svg" width="18" height="16.005" viewBox="0 0 18 16.005">
  <path id="send-email" d="M1512,2863a.9.9,0,0,0,.624.815l6.594,2.058.242,4.692a.463.463,0,0,0,.3.41.4.4,0,0,0,.147.026.441.441,0,0,0,.338-.155l2.331-2.665,3.3,2.361a.848.848,0,0,0,.5.163.9.9,0,0,0,.863-.728l2.742-14.428a.473.473,0,0,0-.154-.447.434.434,0,0,0-.455-.072l-16.852,7.08A.918.918,0,0,0,1512,2863Zm8.3,6.4-.15-2.959,1.689,1.2Zm6.073.361-6.014-4.3,8.433-8.422Zm1.494-13.092-8.338,8.328-6.587-2.055Z" transform="translate(-1512 -2854.992)" fill="#fff"/>
</svg>
