<svg xmlns="http://www.w3.org/2000/svg" width="37" height="32.647" viewBox="0 0 37 32.647">
  <g id="store" transform="translate(-1 -4)">
    <path id="Path_21" data-name="Path 21" d="M38,15.971V13.794a1.085,1.085,0,0,0-.115-.488L33.532,4.6a1.09,1.09,0,0,0-.973-.6H6.441a1.088,1.088,0,0,0-.973.6L1.115,13.307A1.079,1.079,0,0,0,1,13.794v2.176a5.438,5.438,0,0,0,2.176,4.351V34.471H2.088a1.088,1.088,0,0,0,0,2.176H36.912a1.088,1.088,0,0,0,0-2.176H35.824V20.321A5.435,5.435,0,0,0,38,15.971ZM23.853,19.235a3.269,3.269,0,0,1-3.265-3.265V14.882h6.529v1.088A3.269,3.269,0,0,1,23.853,19.235ZM3.176,15.971V14.882H9.706v1.088a3.265,3.265,0,1,1-6.529,0ZM18.412,6.176v6.529H12.187l1.632-6.529Zm6.769,0,1.632,6.529H20.588V6.176Zm-13.3,8.706h6.529v1.088a3.265,3.265,0,1,1-6.529,0Zm17.412,0h6.529v1.088a3.265,3.265,0,1,1-6.529,0Zm5.857-2.176h-6.1L27.422,6.176h4.464ZM7.114,6.176h4.464L9.945,12.706h-6.1ZM5.353,21.3a5.445,5.445,0,0,0,5.441-2.072,5.435,5.435,0,0,0,8.706,0,5.45,5.45,0,0,0,3.265,2.07V34.468H5.353V21.3ZM33.647,34.471H24.941V21.3a5.45,5.45,0,0,0,3.265-2.07,5.445,5.445,0,0,0,5.441,2.072V34.473Z" transform="translate(0)" fill="#fe9d78"/>
    <path id="Path_22" data-name="Path 22" d="M15.176,15.088A1.088,1.088,0,1,1,14.088,14,1.089,1.089,0,0,1,15.176,15.088Z" transform="translate(14.118 11.765)" fill="#fe9d78"/>
    <path id="Path_23" data-name="Path 23" d="M5.089,17.352a1.087,1.087,0,0,1-.77-1.857l2.176-2.176a1.088,1.088,0,0,1,1.539,1.539L5.857,17.034a1.084,1.084,0,0,1-.77.318Z" transform="translate(3.529 10.589)" fill="#fe9d78"/>
    <path id="Path_24" data-name="Path 24" d="M6.089,21.705a1.087,1.087,0,0,1-.77-1.857l6.529-6.529a1.088,1.088,0,1,1,1.539,1.539L6.857,21.387a1.084,1.084,0,0,1-.77.318Z" transform="translate(4.706 10.589)" fill="#fe9d78"/>
    <path id="Path_25" data-name="Path 25" d="M9.089,19.352a1.087,1.087,0,0,1-.77-1.857l2.176-2.176a1.088,1.088,0,1,1,1.539,1.539L9.857,19.034a1.084,1.084,0,0,1-.77.318Z" transform="translate(8.235 12.942)" fill="#fe9d78"/>
  </g>
</svg>
