<svg xmlns="http://www.w3.org/2000/svg" width="37.839" height="30.255" viewBox="0 0 37.839 30.255">
  <g id="support" transform="translate(-0.069 -2.119)">
    <path id="Path_32" data-name="Path 32" d="M34.027,15.032c-1.983,0-5.578-.714-6.7-1.835a3.98,3.98,0,0,1-.981-2.242c-.162-.853-.259-1.107-.632-1.269a18.01,18.01,0,0,0-6.765-1.162A17.924,17.924,0,0,0,12.26,9.667c-.37.158-.465.411-.623,1.263a3.969,3.969,0,0,1-.975,2.246,7.036,7.036,0,0,1-2.921,1.3A16.059,16.059,0,0,1,4,14.99a3.618,3.618,0,0,1-2.614-.735,4.54,4.54,0,0,1-1.3-2.795A4.161,4.161,0,0,1,1.378,8.1,19.243,19.243,0,0,1,9.162,3.592,31.874,31.874,0,0,1,18.9,2.119a32.074,32.074,0,0,1,9.823,1.49,19.462,19.462,0,0,1,7.857,4.559,4.248,4.248,0,0,1,.023,6.136,3.575,3.575,0,0,1-2.579.728ZM18.951,6.619a19.713,19.713,0,0,1,7.517,1.316A3.121,3.121,0,0,1,28.221,10.6a2.393,2.393,0,0,0,.457,1.25c.48.48,3.25,1.278,5.351,1.278a2.637,2.637,0,0,0,1.242-.179,2.344,2.344,0,0,0-.032-3.433C31.8,6.076,25.695,4.024,18.9,4.024c-6.734,0-12.781,2.029-16.18,5.426a2.3,2.3,0,0,0-.745,1.856A2.642,2.642,0,0,0,2.723,12.9,2.664,2.664,0,0,0,4,13.085c2.092,0,4.841-.783,5.313-1.255a2.381,2.381,0,0,0,.45-1.246,3.1,3.1,0,0,1,1.747-2.667,19.552,19.552,0,0,1,7.439-1.3Z" transform="translate(0 0)" fill="#fe9d78"/>
    <path id="Path_33" data-name="Path 33" d="M30.431,27.051H5.665a4.525,4.525,0,0,1-4.549-4.81,16.424,16.424,0,0,1,2.419-7.123,14.286,14.286,0,0,1,5.117-4.909A18.9,18.9,0,0,1,18.048,8a18.9,18.9,0,0,1,9.4,2.208,14.256,14.256,0,0,1,5.117,4.909,16.438,16.438,0,0,1,2.419,7.123,4.525,4.525,0,0,1-4.549,4.81ZM18.048,9.905c-5.938,0-10.265,2.073-12.857,6.159a14.747,14.747,0,0,0-2.172,6.285,2.62,2.62,0,0,0,2.648,2.8H30.433a2.62,2.62,0,0,0,2.648-2.8,14.782,14.782,0,0,0-2.172-6.283c-2.595-4.086-6.921-6.159-12.857-6.159Z" transform="translate(0.941 5.323)" fill="#fe9d78"/>
    <path id="Path_34" data-name="Path 34" d="M12.715,21.431a5.715,5.715,0,1,1,5.715-5.715A5.722,5.722,0,0,1,12.715,21.431Zm0-9.525a3.81,3.81,0,1,0,3.81,3.81A3.814,3.814,0,0,0,12.715,11.905Z" transform="translate(6.273 7.133)" fill="#fe9d78"/>
  </g>
</svg>
