<svg xmlns="http://www.w3.org/2000/svg" width="31" height="31" viewBox="0 0 31 31">
  <g id="tiktok" transform="translate(-514 -556)">
    <circle id="Ellipse_8" data-name="Ellipse 8" cx="15.5" cy="15.5" r="15.5" transform="translate(514 556)" fill="#ffad8d"/>
    <path id="Icon_simple-tiktok" data-name="Icon simple-tiktok" d="M11.534.017C12.631,0,13.719.008,14.807,0a5.213,5.213,0,0,0,1.465,3.49,5.9,5.9,0,0,0,3.549,1.5V8.361A8.959,8.959,0,0,1,16.3,7.549a10.341,10.341,0,0,1-1.356-.778c-.008,2.444.008,4.888-.017,7.323a6.393,6.393,0,0,1-1.13,3.3,6.236,6.236,0,0,1-4.946,2.687,6.1,6.1,0,0,1-3.415-.862,6.312,6.312,0,0,1-3.055-4.779c-.017-.418-.025-.837-.008-1.247A6.3,6.3,0,0,1,9.684,7.6c.017,1.239-.033,2.477-.033,3.716A2.872,2.872,0,0,0,5.985,13.09a3.32,3.32,0,0,0-.117,1.348A2.849,2.849,0,0,0,8.8,16.84a2.812,2.812,0,0,0,2.318-1.348,1.931,1.931,0,0,0,.343-.887c.084-1.5.05-2.988.059-4.486.008-3.373-.008-6.738.017-10.1Z" transform="translate(518.631 561)" fill="#3d3c3c"/>
  </g>
</svg>
