<svg id="user" xmlns="http://www.w3.org/2000/svg" width="17" height="18" viewBox="0 0 17 18">
  <path id="Path_45" data-name="Path 45" d="M8.5,11C6.018,11,4,8.533,4,5.5S6.018,0,8.5,0,13,2.467,13,5.5,10.982,11,8.5,11Zm0-10C6.47,1,4.818,3.019,4.818,5.5S6.47,10,8.5,10s3.682-2.019,3.682-4.5S10.53,1,8.5,1Z"/>
  <path id="Path_46" data-name="Path 46" d="M15.658,20H1.342A1.429,1.429,0,0,1,0,18.5a6.456,6.456,0,0,1,1.1-3.3,6.532,6.532,0,0,1,2.567-2.219A10.844,10.844,0,0,1,8.5,12a10.844,10.844,0,0,1,4.837.981A6.539,6.539,0,0,1,15.9,15.2,6.456,6.456,0,0,1,17,18.5,1.429,1.429,0,0,1,15.658,20ZM8.5,13c-3.12,0-5.422.953-6.658,2.756A5.481,5.481,0,0,0,.895,18.5a.475.475,0,0,0,.447.5H15.658a.476.476,0,0,0,.447-.5,5.461,5.461,0,0,0-.948-2.744C13.921,13.953,11.619,13,8.5,13Z" transform="translate(0 -2)"/>
</svg>
