<svg xmlns="http://www.w3.org/2000/svg" width="31" height="31" viewBox="0 0 31 31">
  <g id="youtube" transform="translate(-543 -557)">
    <circle id="Ellipse_9" data-name="Ellipse 9" cx="15.5" cy="15.5" r="15.5" transform="translate(543 557)" fill="#ffad8d"/>
    <path id="Icon_ionic-logo-youtube" data-name="Icon ionic-logo-youtube" d="M19.953,7.827a3.05,3.05,0,0,0-2.9-3.186c-2.173-.1-4.39-.141-6.654-.141H9.69c-2.26,0-4.48.039-6.654.141a3.056,3.056,0,0,0-2.9,3.194C.039,9.231,0,10.628,0,12.025s.039,2.793.133,4.194a3.06,3.06,0,0,0,2.9,3.2c2.283.106,4.626.153,7.007.149s4.72-.039,7.007-.149a3.06,3.06,0,0,0,2.9-3.2c.094-1.4.137-2.8.133-4.2S20.048,9.228,19.953,7.827ZM8.121,15.873V8.164l5.689,3.853Z" transform="translate(548 560.5)" fill="#3d3c3c"/>
  </g>
</svg>
